<?xml version="1.0" standalone="no"?><!DOCTYPE svg PUBLIC "-//W3C//DTD SVG 1.1//EN" "http://www.w3.org/Graphics/SVG/1.1/DTD/svg11.dtd"><svg t="1600848449533" class="icon" viewBox="0 0 1024 1024" version="1.1" xmlns="http://www.w3.org/2000/svg" p-id="7686" xmlns:xlink="http://www.w3.org/1999/xlink" width="200" height="200"><defs><style type="text/css"></style></defs><path d="M0 12.8v998.4h1024V12.8H0z m42.666667 42.666667h938.666666v913.066666H42.666667V55.466667z m240.981333 653.866666c-4.949333 0-6.314667-2.133333-6.314667-6.314666V244.608c0-3.541333 1.408-5.632 4.949334-5.632H349.866667c3.584 0 4.266667 1.578667 4.266666 5.12v395.093333h176c3.541333 0 4.522667 1.408 3.84 4.949334l-10.581333 60.586666c-0.682667 3.498667-2.816 4.906667-6.314667 4.906667H283.733333z m315.818667-276.309333c0-5.12 0-17.749333-2.133334-41.685333 0-3.541333 0.768-4.266667 3.584-5.632 26.026667-10.496 87.808-29.525333 156.8-29.525334 3.413333 0 4.778667 0.725333 4.778667 4.266667V422.4c0 3.584-1.408 4.266667-4.949333 4.266667-26.794667-1.408-66.730667 2.133333-81.493334 8.448v269.226666c0 3.498667-1.408 4.906667-4.949333 4.906667h-66.986667c-3.413333 0-4.864-1.408-4.864-4.949333v-271.36z" p-id="7687" fill="#2c2c2c"></path></svg>