<?xml version="1.0" standalone="no"?><!DOCTYPE svg PUBLIC "-//W3C//DTD SVG 1.1//EN" "http://www.w3.org/Graphics/SVG/1.1/DTD/svg11.dtd"><svg t="1600848539310" class="icon" viewBox="0 0 1024 1024" version="1.1" xmlns="http://www.w3.org/2000/svg" p-id="8686" xmlns:xlink="http://www.w3.org/1999/xlink" width="200" height="200"><defs><style type="text/css"></style></defs><path d="M512 928c-229.76 0-416-186.24-416-416S282.24 96 512 96s416 186.24 416 416-186.24 416-416 416z m0-64a352 352 0 1 0 0-704 352 352 0 0 0 0 704z m138.666667-333.525333l-192 110.848a21.333333 21.333333 0 0 1-32-18.474667V401.152a21.333333 21.333333 0 0 1 32-18.474667l192 110.848a21.333333 21.333333 0 0 1 0 36.949334z" fill="#2c2c2c" p-id="8687"></path></svg>