<?xml version="1.0" standalone="no"?><!DOCTYPE svg PUBLIC "-//W3C//DTD SVG 1.1//EN" "http://www.w3.org/Graphics/SVG/1.1/DTD/svg11.dtd"><svg t="1600848093099" class="icon" viewBox="0 0 1198 1024" version="1.1" xmlns="http://www.w3.org/2000/svg" p-id="3257" xmlns:xlink="http://www.w3.org/1999/xlink" width="233.984375" height="200"><defs><style type="text/css"></style></defs><path d="M1152.076601 0H45.960503C20.222621 0 0 20.835428 0 45.960503v931.466188c0 25.125075 20.222621 46.573309 45.960503 46.573309H1152.076601c25.737882 0 46.573309-21.448235 46.573309-46.573309V45.960503c0-25.125075-21.448235-45.960503-46.573309-45.960503z m-45.960503 930.853381H91.921005v-101.113106l237.156194-237.769 164.845003 164.845003v0.612806h0.612807l98.049072 98.049073c10.417714 11.030521 28.189108 11.030521 39.219629 0 10.417714-10.417714 10.417714-27.576302 0-38.606822l-79.052064-79.052065 223.674446-223.674447 329.077199 329.0772v87.631358h0.612807z m0-166.070616L796.648713 454.702573c-11.643327-11.030521-28.189108-11.030521-39.219629 0L514.144823 698.599641 349.29982 533.141831c-11.030521-11.030521-28.189108-11.030521-38.606822 0L91.921005 751.301017V91.921005h1014.195093v672.86176zM347.4614 462.66906C435.705566 462.66906 508.629563 390.35787 508.629563 302.113704 508.629563 213.869539 436.318372 140.945542 347.4614 140.945542c-88.244165 0-160.555356 72.311191-160.555356 161.168162 0 88.244165 72.311191 160.555356 160.555356 160.555356z m0-265.958108c58.216637 0 105.402753 47.186116 105.402753 106.015559 0 57.60383-47.186116 104.789946-105.402753 104.789946-57.60383 0-105.402753-47.186116-105.402752-104.789946 0-58.829443 47.798923-106.01556 105.402752-106.015559z" p-id="3258" fill="#2c2c2c"></path></svg>