<?xml version="1.0" standalone="no"?><!DOCTYPE svg PUBLIC "-//W3C//DTD SVG 1.1//EN" "http://www.w3.org/Graphics/SVG/1.1/DTD/svg11.dtd"><svg t="1600848413763" class="icon" viewBox="0 0 1024 1024" version="1.1" xmlns="http://www.w3.org/2000/svg" p-id="6360" xmlns:xlink="http://www.w3.org/1999/xlink" width="200" height="200"><defs><style type="text/css"></style></defs><path d="M143.36 40.92928L143.34976 40.96 143.36 40.92928z m552.37632-13.824L726.4256 40.96h-18.47296l-12.22656-13.84448z m195.16416 220.98944L880.64 220.9792v15.50336l10.26048 11.61216zM880.6912 983.04H880.64h0.0512zM880.64 236.48256L707.96288 40.96H143.36v942.11072C143.36 982.9888 576.14336 983.04 576.14336 983.04v40.96H143.40096A41.03168 41.03168 0 0 1 102.4 983.07072V40.92928A40.93952 40.93952 0 0 1 143.34976 0H726.4256L921.6 220.9792v762.09152A40.96 40.96 0 0 1 880.6912 1024H745.23648v-40.96H880.64V236.48256zM880.6912 983.04H880.64h0.0512zM880.64 236.48256V220.9792l10.26048 27.11552L880.64 236.48256zM726.4256 40.96l-30.68928-13.84448L707.96288 40.96h18.47296zM880.64 236.48256L707.96288 40.96H143.36v942.11072C143.36 982.9888 576.14336 983.04 576.14336 983.04v40.96H143.40096A41.03168 41.03168 0 0 1 102.4 983.07072V40.92928A40.93952 40.93952 0 0 1 143.34976 0H726.4256L921.6 220.9792v762.09152A40.96 40.96 0 0 1 880.6912 1024H745.23648v-40.96H880.64V236.48256z" p-id="6361" fill="#2c2c2c"></path><path d="M573.44 1003.52m-20.48 0a20.48 20.48 0 1 0 40.96 0 20.48 20.48 0 1 0-40.96 0Z" p-id="6362" fill="#2c2c2c"></path><path d="M747.52 1003.52m-20.48 0a20.48 20.48 0 1 0 40.96 0 20.48 20.48 0 1 0-40.96 0Z" p-id="6363" fill="#2c2c2c"></path><path d="M716.8 215.06048C716.8 215.01952 853.0944 215.04 853.0944 215.04l0.03072-15.70816 40.96 0.06144L894.0032 256H716.87168A40.99072 40.99072 0 0 1 675.84 215.06048V14.68416l40.96 1.06496v199.31136zM603.1872 548.47488l-0.22528-6.38976 26.27584-26.15296 27.46368 28.12928 98.62144 98.62144a21.43232 21.43232 0 0 1-0.02048 30.3104l-88.76032 86.87616-28.49792 28.0576-27.38176-26.86976-0.13312-3.6864 101.85728-99.69664-109.19936-109.19936z m-260.3008 203.20256l28.89728-22.05696 24.85248 32.5632-28.88704 22.04672L250.6752 667.62752a21.4528 21.4528 0 0 1 0.02048-30.34112l119.1424-117.84192 26.78784 26.91072v4.20864l-103.08608 101.94944L396.63616 755.2l-28.88704 29.0304-24.85248-32.5632z" p-id="6364" fill="#2c2c2c"></path><path d="M380.928 768m-20.48 0a20.48 20.48 0 1 0 40.96 0 20.48 20.48 0 1 0-40.96 0Z" p-id="6365" fill="#2c2c2c"></path><path d="M623.616 773.12m-20.48 0a20.48 20.48 0 1 0 40.96 0 20.48 20.48 0 1 0-40.96 0Z" p-id="6366" fill="#2c2c2c"></path><path d="M386.048 532.48m-20.48 0a20.48 20.48 0 1 0 40.96 0 20.48 20.48 0 1 0-40.96 0Z" p-id="6367" fill="#2c2c2c"></path><path d="M616.448 532.48m-20.48 0a20.48 20.48 0 1 0 40.96 0 20.48 20.48 0 1 0-40.96 0Z" p-id="6368" fill="#2c2c2c"></path></svg>