<?xml version="1.0" standalone="no"?><!DOCTYPE svg PUBLIC "-//W3C//DTD SVG 1.1//EN" "http://www.w3.org/Graphics/SVG/1.1/DTD/svg11.dtd"><svg t="1600849134907" class="icon" viewBox="0 0 1024 1024" version="1.1" xmlns="http://www.w3.org/2000/svg" p-id="9495" xmlns:xlink="http://www.w3.org/1999/xlink" width="200" height="200"><defs><style type="text/css"></style></defs><path d="M805.34375 511.9915625c-42.654375 0-79.9996875-37.4203125-79.9996875-79.996875 0-42.654375 37.344375-79.993125 79.9996875-79.993125 42.6646875 0 79.995 37.33875 79.995 79.993125 0.001875 42.575625-37.3340625 79.996875-79.995 79.996875zM645.3528125 298.63625c-42.6646875 0-79.9996875-37.34625-79.9996875-80.0015625s37.335-79.996875 79.9996875-79.996875c42.6525 0 79.99125 37.34625 79.99125 79.996875 0 42.654375-37.3378125 80.0015625-79.99125 80.0015625z m-266.64 0c-42.735 0-79.996875-37.34625-79.996875-80.0015625s37.2628125-79.996875 79.996875-79.996875c42.6525 0 79.99875 37.34625 79.99875 79.996875 0.0009375 42.654375-37.3453125 80.0015625-79.99875 80.0015625zM218.714375 511.9915625c-42.7246875 0-79.989375-37.4203125-79.989375-79.996875 0-42.654375 37.2609375-79.993125 79.989375-79.993125 42.6665625 0 79.996875 37.33875 79.996875 79.993125 0.0028125 42.575625-37.3275 79.996875-79.996875 79.996875zM511.9934375 32C245.3590625 32 32 245.3515625 32 511.9953125c0 266.641875 213.3590625 479.98875 479.9934375 479.98875 42.7321875 0 79.996875-37.4184375 79.996875-79.99875 0-21.40875-5.31-37.4203125-21.2484375-53.35125-10.790625-16.018125-21.4059375-32.03625-21.4059375-53.2846875 0-42.7321875 37.344375-79.996875 79.9996875-79.996875h96.005625c149.3803125 0 266.64375-117.3440625 266.64375-266.7140625C991.9840625 223.95125 778.705625 32 511.9934375 32z" p-id="9496" fill="#2c2c2c"></path></svg>