<?xml version="1.0" standalone="no"?><!DOCTYPE svg PUBLIC "-//W3C//DTD SVG 1.1//EN" "http://www.w3.org/Graphics/SVG/1.1/DTD/svg11.dtd"><svg t="1600680786273" class="icon" viewBox="0 0 1024 1024" version="1.1" xmlns="http://www.w3.org/2000/svg" p-id="19288" xmlns:xlink="http://www.w3.org/1999/xlink" width="200" height="200"><defs><style type="text/css"></style></defs><path d="M847.744 525.12h-346.24V174.08c0-59.008-48-107.008-107.008-107.008H176.448c-59.008 0-107.008 48-107.008 107.008v670.912c0 1.28 0.32 2.432 0.384 3.648v1.408c0 59.008 48 107.008 107.008 107.008h670.912c59.008 0 107.008-48 107.008-107.008V632.128c0-59.008-48-107.008-107.008-107.008z m31.36 324.992c0 17.28-14.08 31.36-31.36 31.36h-88.32V800.64a37.76 37.76 0 0 0-75.584 0v80.896H557.056v-133.568a37.76 37.76 0 0 0-75.648 0v133.568H394.496v-4.992H354.56v-75.904a37.76 37.76 0 0 0-75.584 0v75.904H176.448a31.232 31.232 0 0 1-31.04-29.568v-99.008h83.584a37.76 37.76 0 0 0 0-75.584H145.408v-40.192h-0.32V545.536H281.6a37.76 37.76 0 0 0 0-75.648H145.088v-126.72h83.84a37.76 37.76 0 0 0 0-75.648h-83.84V174.08c0-17.28 14.08-31.36 31.36-31.36h217.984c17.28 0 31.36 14.08 31.36 31.36V572.16h0.128v28.608h421.76c17.344 0 31.424 14.08 31.424 31.36v218.048z" p-id="19289" fill="#ffffff"></path></svg>