<?xml version="1.0" standalone="no"?><!DOCTYPE svg PUBLIC "-//W3C//DTD SVG 1.1//EN" "http://www.w3.org/Graphics/SVG/1.1/DTD/svg11.dtd"><svg t="1600681543802" class="icon" viewBox="0 0 1024 1024" version="1.1" xmlns="http://www.w3.org/2000/svg" p-id="22734" xmlns:xlink="http://www.w3.org/1999/xlink" width="200" height="200"><defs><style type="text/css"></style></defs><path d="M814.933333 338.346667h-128v-128a69.12 69.12 0 0 0-69.12-69.12H209.066667A69.12 69.12 0 0 0 139.946667 209.066667v407.893333a69.12 69.12 0 0 0 69.12 69.12h128v128a69.12 69.12 0 0 0 69.12 69.546667h408.746666a69.12 69.12 0 0 0 69.12-69.546667V407.466667a69.12 69.12 0 0 0-69.12-69.12zM208.213333 616.96V208.213333h408.746667v128H407.466667a69.12 69.12 0 0 0-69.12 71.253334v209.92z m608 197.973333H407.893333v-128h209.493334a69.12 69.12 0 0 0 69.12-69.12V407.04h130.56z" p-id="22735" fill="#ffffff"></path></svg>