<?xml version="1.0" standalone="no"?><!DOCTYPE svg PUBLIC "-//W3C//DTD SVG 1.1//EN" "http://www.w3.org/Graphics/SVG/1.1/DTD/svg11.dtd"><svg t="1600680669210" class="icon" viewBox="0 0 1024 1024" version="1.1" xmlns="http://www.w3.org/2000/svg" p-id="13534" xmlns:xlink="http://www.w3.org/1999/xlink" width="200" height="200"><defs><style type="text/css"></style></defs><path d="M464.128 69.9392a64 64 0 0 1 85.2992-4.6592l5.2224 4.6592 152.6272 152.6784a64 64 0 0 1-38.0416 108.8l-7.168 0.4096h-50.3296v94.3616l356.0448 207.36a76.8 76.8 0 0 1 6.656 128.3584l-6.656 4.352-419.7888 244.3264a76.8 76.8 0 0 1-69.9392 3.7888l-7.3216-3.7888-419.7888-244.3264a76.8 76.8 0 0 1-6.656-128.4096l6.656-4.352 355.9936-207.2576V331.8272h-50.176a64 64 0 0 1-62.72-51.0976l-1.024-6.3488-0.3072-6.5536c0-14.5408 4.9664-28.5696 13.9264-39.8336l4.864-5.376 152.6272-152.6784z m147.6096 415.5392v118.4768l164.7104 95.8976-267.0592 155.4944-267.1104-155.4944 164.6592-95.8976V485.5296l-330.24 192.2048a25.6 25.6 0 0 0-3.7376 41.6256l3.7888 2.6624 419.7376 244.3264a25.6 25.6 0 0 0 12.9024 3.4816l4.4032-0.4096 4.352-1.1264 4.096-1.9456 419.7888-244.3264a25.6 25.6 0 0 0 3.7376-41.5744l-3.7376-2.7136-330.2912-192.256z m-8.6528 256H415.5392l93.7984 54.5792 93.7472-54.5792z m-196.1472-78.2848l-62.9248 36.6592 62.9248 36.608v-73.2672z m204.8 0v73.2672l62.9248-36.6592-62.9248-36.608zM509.3376 102.4a12.8 12.8 0 0 0-6.2976 1.6896l-2.7136 2.048-152.6272 152.6784a12.8 12.8 0 0 0 6.144 21.504l2.8672 0.3072h101.4272v409.6512h102.4V280.6272h101.4784l3.328-0.4096a12.8 12.8 0 0 0 7.8336-18.688l-2.048-2.7136-152.6784-152.6784a12.7488 12.7488 0 0 0-5.8368-3.328L509.44 102.4z" fill="#ffffff" p-id="13535"></path><path d="M611.7376 485.4784l330.24 192.256a25.6 25.6 0 0 1 0 44.288L522.24 966.3488a25.6 25.6 0 0 1-25.7536 0L76.8 722.0224a25.6 25.6 0 0 1 0-44.288l330.1888-192.2048v118.4256L242.2784 699.904l267.1104 155.4944 267.0592-155.4944-164.7104-95.8976V485.4784z m-93.2864-379.3408l152.6272 152.6784a12.8 12.8 0 0 1-9.0624 21.8112h-101.4784v409.6512h-102.4V280.6272h-101.376a12.8 12.8 0 0 1-9.0624-21.8112l152.6272-152.6784a12.8 12.8 0 0 1 18.1248 0z" fill="#ffffff" p-id="13536"></path></svg>