<?xml version="1.0" standalone="no"?><!DOCTYPE svg PUBLIC "-//W3C//DTD SVG 1.1//EN" "http://www.w3.org/Graphics/SVG/1.1/DTD/svg11.dtd"><svg t="1600680829236" class="icon" viewBox="0 0 1024 1024" version="1.1" xmlns="http://www.w3.org/2000/svg" p-id="20906" xmlns:xlink="http://www.w3.org/1999/xlink" width="200" height="200"><defs><style type="text/css"></style></defs><path d="M192 607.232C88.064 576 51.2 537.6 51.2 512c0-58.368 172.032-129.024 418.816-135.68a25.6 25.6 0 0 0 25.088-26.112 26.624 26.624 0 0 0-26.112-25.088C242.688 331.264 0 392.704 0 512c0 59.392 61.44 109.056 177.152 144.384h7.68a25.6 25.6 0 0 0 7.68-51.2zM851.968 369.152a25.6 25.6 0 1 0-15.36 51.2C936.96 449.536 972.8 486.912 972.8 512c0 56.832-175.104 136.704-460.8 136.704H445.44l5.632-80.384L256 659.968l177.664 119.808 5.632-82.432h70.144c248.32 0 512-66.048 512-187.904 2.56-55.808-56.832-104.96-169.472-140.288z" fill="#ffffff" p-id="20907"></path><path d="M402.432 153.6a25.6 25.6 0 0 0 33.792-13.312C460.8 83.968 487.424 51.2 512 51.2c51.2 0 111.616 126.464 130.56 332.288L563.2 389.12l119.808 177.664 94.208-192.512-81.92 5.632C675.84 185.856 614.4 0 512 0c-33.28 0-81.408 20.48-123.392 118.272a25.6 25.6 0 0 0 13.824 35.328zM659.456 716.8a25.6 25.6 0 0 0-29.696 20.48c-29.184 162.304-81.408 235.52-117.76 235.52-25.6 0-55.296-35.328-78.848-94.208a25.6 25.6 0 0 0-47.616 19.456C428.032 1001.984 477.696 1024 512 1024c75.264 0 136.192-102.4 167.936-276.992a25.6 25.6 0 0 0-20.48-30.208z" fill="#ffffff" p-id="20908"></path></svg>