<?xml version="1.0" standalone="no"?><!DOCTYPE svg PUBLIC "-//W3C//DTD SVG 1.1//EN" "http://www.w3.org/Graphics/SVG/1.1/DTD/svg11.dtd"><svg t="1600680534196" class="icon" viewBox="0 0 1144 1024" version="1.1" xmlns="http://www.w3.org/2000/svg" p-id="8122" xmlns:xlink="http://www.w3.org/1999/xlink" width="223.4375" height="200"><defs><style type="text/css"></style></defs><path d="M272.022588 993.340235l-185.404235-237.327059a180.705882 180.705882 0 0 1 31.141647-253.590588L734.870588 20.178824a60.235294 60.235294 0 0 1 84.570353 10.420705l259.614118 332.257883a60.235294 60.235294 0 0 1-10.420706 84.570353L356.592941 1003.760941a60.235294 60.235294 0 0 1-84.570353-10.420706z m47.465412-37.104941l711.981176-556.212706-259.614117-332.257882L154.925176 549.827765a120.470588 120.470588 0 0 0-20.781176 169.08047l185.404235 237.327059z" fill="#ffffff" p-id="8123"></path><path d="M217.810824 464.173176l304.790588 365.808942 46.260706-38.550589-304.790589-365.869176zM301.176471 1010.748235h557.296941v-60.235294H301.176471z" fill="#ffffff" p-id="8124"></path></svg>