<?xml version="1.0" standalone="no"?><!DOCTYPE svg PUBLIC "-//W3C//DTD SVG 1.1//EN" "http://www.w3.org/Graphics/SVG/1.1/DTD/svg11.dtd"><svg t="1600680647916" class="icon" viewBox="0 0 1024 1024" version="1.1" xmlns="http://www.w3.org/2000/svg" p-id="12682" xmlns:xlink="http://www.w3.org/1999/xlink" width="200" height="200"><defs><style type="text/css"></style></defs><path d="M921.6 115.2v96h-102.4V115.2h102.4m44.8-44.8h-192V256h192V70.4zM204.8 115.2v96H102.4V115.2h102.4m44.8-44.8h-192V256h192V70.4zM204.8 812.8v96H102.4v-96h102.4m44.8-44.8h-192v185.6h192V768zM921.6 812.8v96h-102.4v-96h102.4m44.8-44.8h-192v185.6h192V768z" fill="#ffffff" p-id="12683"></path><path d="M115.2 224h83.2v563.2H115.2zM224 819.2h569.6v83.2H224zM825.6 243.2h83.2v537.6h-83.2zM230.4 121.6h563.2v83.2H230.4z" fill="#ffffff" p-id="12684"></path></svg>