<?xml version="1.0" standalone="no"?><!DOCTYPE svg PUBLIC "-//W3C//DTD SVG 1.1//EN" "http://www.w3.org/Graphics/SVG/1.1/DTD/svg11.dtd"><svg t="1600680729606" class="icon" viewBox="0 0 1024 1024" version="1.1" xmlns="http://www.w3.org/2000/svg" p-id="16196" xmlns:xlink="http://www.w3.org/1999/xlink" width="200" height="200"><defs><style type="text/css"></style></defs><path d="M724.096 223.296l-2.496 2.56h-143.36V439.04c0 4.8-3.904 8.704-8.704 8.704H453.504a8.704 8.704 0 0 1-8.704-8.704V225.792H301.44l-2.56-2.56a10.688 10.688 0 0 1 0-15.04L503.936 3.2a10.688 10.688 0 0 1 15.104 0l205.056 205.056a10.688 10.688 0 0 1 0 15.104z m0 576.384l-2.496-2.56h-143.36V583.936a8.704 8.704 0 0 0-8.704-8.704H453.504a8.704 8.704 0 0 0-8.704 8.704v213.312H301.44l-2.56 2.56a10.688 10.688 0 0 0 0 15.04l205.056 205.056c4.16 4.16 10.88 4.16 15.104 0l205.056-205.056a10.688 10.688 0 0 0 0-15.104zM223.36 298.88l2.56 2.56v143.36H439.04c4.8 0 8.704 3.84 8.704 8.704v116.032c0 4.8-3.84 8.704-8.704 8.704H225.792v143.36l-2.56 2.56a10.688 10.688 0 0 1-15.04 0L3.2 519.04a10.688 10.688 0 0 1 0-15.104L208.192 298.88a10.688 10.688 0 0 1 15.104 0z m573.888 2.56v143.36H583.872a8.704 8.704 0 0 0-8.704 8.704v116.032c0 4.8 3.904 8.704 8.704 8.704h213.312v143.36l2.56 2.56c4.096 4.096 10.88 4.096 15.04 0l205.056-205.12a10.688 10.688 0 0 0 0-15.104L814.784 298.88a10.688 10.688 0 0 0-15.104 0l-2.56 2.56z" p-id="16197" fill="#ffffff"></path></svg>