<?xml version="1.0" standalone="no"?><!DOCTYPE svg PUBLIC "-//W3C//DTD SVG 1.1//EN" "http://www.w3.org/Graphics/SVG/1.1/DTD/svg11.dtd"><svg t="1600680809222" class="icon" viewBox="0 0 1024 1024" version="1.1" xmlns="http://www.w3.org/2000/svg" p-id="20095" xmlns:xlink="http://www.w3.org/1999/xlink" width="200" height="200"><defs><style type="text/css"></style></defs><path d="M801.794685 13.158439C726.589452-13.871848 654.376575 1.129565 594.212389 55.269406c-41.892981 41.892981-72.589399 99.798038-89.176166 155.939388-37.989047-48.72982-93.753875-74.70981-157.524742-74.70981C148.945886 142.503512 52.695078 286.929267 31.609869 425.310859c-9.036518 51.147485-5.945078 123.340545-5.945078 195.553422v99.282798s-3.012173 27.06992-5.945077 39.098794c-12.028874 78.217406 5.945078 156.434811 45.123139 204.570124 29.963192 36.106439 72.074159 57.171831 123.320729 60.184003h9.016701c45.12314 0 87.194473-15.041047 120.34819-48.135312 52.633755-52.633755 79.683858-136.518801 78.395758-196.425368 15.27885-80.892691 72.19306-155.80067 120.169837-218.739225l3.012173-3.012173A164.004877 164.004877 0 0 0 539.418589 521.185145a294.32098 294.32098 0 0 1-0.356704 65.574207 33.886943 33.886943 0 0 0-1.981693 4.102104c-21.065392 54.139841-27.06992 147.41811 5.945078 216.598997 21.065392 48.135312 57.171831 78.217406 105.287326 93.258452a170.425561 170.425561 0 0 0 54.199292 8.877983c30.082093 0 57.171831-5.945078 81.249395-24.077565 54.159658-33.094266 96.270625-99.282798 111.311671-177.500203 1.724073-6.916107 4.458808-18.826079 6.460318-27.743696a46.232888 46.232888 0 0 0 2.5762-5.41002c12.028874-30.082093 24.057748-63.176359 36.106439-96.270625 24.057748-69.200704 51.147485-135.389236 60.164186-186.516905 27.050104-135.250518-12.068508-306.726375-198.585412-378.919435zM263.26973 921.70503c-21.065392 21.065392-45.12314 33.094266-72.19306 30.082093-30.082093-3.012173-51.147485-12.028874-69.200704-33.094266-30.082093-39.098794-33.094266-102.23552-27.069921-147.398293l209.009115 31.072939 13.594411 2.199679c-6.044162 39.05916-21.085209 87.194473-54.139841 117.137848z m198.565595-409.160065l-3.012172 3.012173c-45.12314 60.184003-102.215703 132.456331-126.352718 216.618815l-231.659861-39.118612v-75.304317c0-66.188532 0-138.381592 5.945077-180.512376 9.036518-54.159658 51.147485-222.623343 243.748186-225.635516 51.147485 0 87.194473 21.065392 111.311671 69.200705 42.150601 81.328663 27.089737 195.652507 0.019817 231.739128z m361.024752 183.524549c-9.036518 48.135312-33.094266 105.287326-75.304317 129.364891-21.065392 12.028874-45.12314 15.041047-75.304318 5.945078-26.891568-8.977067-47.95696-27.01047-60.005651-54.080391-18.053219-39.098794-18.053219-90.246279-12.028874-126.352718l222.623343 42.130784z m108.299499-315.901612c-9.036518 42.130784-33.094266 108.299499-57.171831 171.495675-8.739264 23.284888-17.478528 46.549958-26.197975 67.119927l-232.472355-45.063689c2.51675-86.580148-24.275734-173.001761-45.182591-241.766493V328.960966c-12.028874-42.110967 15.041047-156.434811 78.217406-216.598997 39.197879-36.027171 81.229578-44.984421 129.364891-27.01047 177.500203 66.188532 165.471329 228.647688 153.442455 294.83622z" fill="#ffffff" p-id="20096"></path></svg>