<?xml version="1.0" standalone="no"?><!DOCTYPE svg PUBLIC "-//W3C//DTD SVG 1.1//EN"
    "http://www.w3.org/Graphics/SVG/1.1/DTD/svg11.dtd">
<svg t="1599389718505" class="icon" viewBox="0 0 1024 1024" version="1.1" xmlns="http://www.w3.org/2000/svg" p-id="7933"
     xmlns:xlink="http://www.w3.org/1999/xlink" width="200" height="200">
    <defs>
        <style type="text/css"></style>
    </defs>
    <path
        d="M511.982 160c253.506 0 459.017 204.362 459.017 456.43 0 91.668-27.194 177.045-73.99 248.57H126.99A452.424 452.424 0 0 1 53 616.43C53 364.362 258.51 160 511.982 160z m365.017 450.554a360.443 360.443 0 0 0-28.632-141.48 362.469 362.469 0 0 0-78.139-115.601C701.778 285.084 609.066 246.786 512.483 247c-96.588-0.21-189.303 38.102-257.745 106.506a362.338 362.338 0 0 0-78.139 115.601 360.45 360.45 0 0 0-28.6 141.48C148 670.424 162.594 728.75 190.44 781h644.118A361.667 361.667 0 0 0 877 610.554zM732.596 402.058c58.635 57.888 91.562 136.918 91.384 219.332 0 17.588-14.307 31.832-31.99 31.832a31.881 31.881 0 0 1-22.59-9.283 31.907 31.907 0 0 1-9.4-22.549 244.217 244.217 0 0 0-72.63-174.328 247.099 247.099 0 0 0-175.387-72.214 247.1 247.1 0 0 0-175.353 72.214A244.217 244.217 0 0 0 264 621.39c0 17.588-14.34 31.832-31.989 31.832a31.881 31.881 0 0 1-22.61-9.27 31.907 31.907 0 0 1-9.413-22.562c0-82.836 32.472-160.705 91.382-219.332a310.873 310.873 0 0 1 220.613-90.84 310.873 310.873 0 0 1 220.613 90.84z m-200.344 191.95c44.026-0.114 79.82 35.48 79.972 79.525-0.152 44.046-35.946 79.64-79.972 79.526a79.715 79.715 0 0 1-56.471-23.18 79.784 79.784 0 0 1-23.536-56.346 79.009 79.009 0 0 1 5.516-29.037l-69.08-68.697a31.665 31.665 0 0 1 0-45.004c12.526-12.436 32.734-12.436 45.26 0l69.08 68.697c9.307-3.622 19.234-5.518 29.231-5.518v0.034z"
        p-id="7934" fill="#ffffff"></path>
</svg>
