<?xml version="1.0" standalone="no"?><!DOCTYPE svg PUBLIC "-//W3C//DTD SVG 1.1//EN"
    "http://www.w3.org/Graphics/SVG/1.1/DTD/svg11.dtd">
<svg t="1599389790864" class="icon" viewBox="0 0 1024 1024" version="1.1" xmlns="http://www.w3.org/2000/svg"
     p-id="11486" xmlns:xlink="http://www.w3.org/1999/xlink" width="200" height="200">
    <defs>
        <style type="text/css"></style>
    </defs>
    <path
        d="M981.66516 0a32 32 0 0 1 31.96 30.4l0.04 1.6v719.28a31.888 31.888 0 0 1-7.32 21.12l-1.16 1.312-217 235.008c-2.56 2.768-5.488 4.976-8.64 6.64a31.896 31.896 0 0 1-19.944 8.584l-1.936 0.056h-720a32 32 0 0 1-31.96-30.4l-0.04-1.6-0.008-704.328a32.112 32.112 0 0 1 0.656-22.144 32.064 32.064 0 0 1 18.128-22.68L229.49716 20.8a32.24 32.24 0 0 1 3.712-3.44A32 32 0 0 1 259.90516 0.048l1.76-0.048h720zM725.65716 784H277.31316l-162.52 176h610.872l-0.008-176z m182.912 0H789.65716v128.776L908.56916 784zM725.66516 304H293.65716v416h432V304z m223.992-198.4l-160 182.144V720h160V105.6z m-48.64-41.6h-607.36v176H746.40116l154.616-176z"
        p-id="11487" fill="#ffffff"></path>
</svg>
