<?xml version="1.0" standalone="no"?><!DOCTYPE svg PUBLIC "-//W3C//DTD SVG 1.1//EN"
    "http://www.w3.org/Graphics/SVG/1.1/DTD/svg11.dtd">
<svg t="1599389751692" class="icon" viewBox="0 0 1024 1024" version="1.1" xmlns="http://www.w3.org/2000/svg" p-id="9426"
     xmlns:xlink="http://www.w3.org/1999/xlink" width="200" height="200">
    <defs>
        <style type="text/css"></style>
    </defs>
    <path
        d="M952.147532 672.964018L757.361197 307.138192c-12.30628-22.76447-45.108361-39.022759-75.866898-39.022758H343.185176c-30.758538 0-63.566758 17.884322-75.866898 39.022758L72.532967 672.964018c-10.253528 21.137413-10.253528 42.270732 4.101411 58.529022 12.301164 16.259312 36.905538 24.390503 65.61337 24.390503h740.186026c28.707832 0 53.312206-9.753131 65.612347-24.390503 12.300141-16.258289 14.350846-37.391608 4.101411-58.529022zM412.893818 544.517601l18.457374-105.683994H570.773592l18.452257 105.683994H412.893818z m180.435489 32.517601l24.604374 146.33074H380.089691l24.605398-146.33074h188.634218zM240.663198 438.833607h147.630339l-18.457374 105.683994H183.254697l57.408501-105.683994z m194.784289-32.517601l18.458397-105.682971h92.263333l18.452258 105.682971H435.447487z m176.334077 32.517601H775.813454c2.050706 0 4.101411 0 6.152117-1.626034l57.408501 107.310028H630.237915l-18.456351-105.683994zM718.40086 320.144414l45.108361 86.171592h-157.875681l-18.458397-105.682971h92.26845c16.406668 0 34.859949 9.758248 38.957267 19.511379z m-414.177044 0c6.152117-9.753131 24.604374-19.510356 38.96136-19.510356h69.708642L394.441561 406.317029H257.06475l47.159066-86.172615zM109.438505 713.608717c-6.152117-6.501064-6.152117-16.258289 0-27.638477l57.413617-108.935038h198.887746l-24.604374 146.33074H142.246725c-16.406668 0-26.656103-3.252067-32.80822-9.757225z m803.752783 0c-6.152117 6.505158-16.407692 9.757225-30.758537 9.757225H660.991336L636.385938 577.035202h219.391733l57.413617 108.935038c6.147 11.380188 6.147 21.137413 0 27.638477z m0 0"
        p-id="9427" fill="#ffffff"></path>
</svg>
